<?xml version="1.0" encoding="UTF-8"?>
<svg id="Layer_1" data-name="Layer 1" xmlns="http://www.w3.org/2000/svg" viewBox="0 0 250.02 269.94">
  <defs>
    <style>
      .cls-1 {
        fill: #fff;
      }
    </style>
  </defs>
  <path class="cls-1" d="M30.33,183.33c-2.39,0-4.33-1.94-4.33-4.34v-37.63c0-2.4,1.94-4.34,4.33-4.34s4.33,1.94,4.33,4.34v37.63c0,2.4-1.94,4.34-4.33,4.34Z"/>
  <path class="cls-1" d="M77.59,221.38c-3.19,0-5.77-2.59-5.77-5.79v-110.82c0-3.2,2.58-5.79,5.77-5.79s5.77,2.59,5.77,5.79v110.82c0,3.2-2.58,5.79-5.77,5.79Z"/>
  <path class="cls-1" d="M171.16,221.38c-3.19,0-5.77-2.59-5.77-5.79V12.63c0-3.2,2.58-5.79,5.77-5.79s5.77,2.59,5.77,5.79v202.96c0,3.2-2.58,5.79-5.77,5.79Z"/>
  <path class="cls-1" d="M124.85,269.94c-3.98,0-7.22-3.24-7.22-7.23V57.65c0-4,3.23-7.23,7.22-7.23s7.22,3.24,7.22,7.23v205.06c0,4-3.23,7.23-7.22,7.23Z"/>
  <path class="cls-1" d="M219.37,183.33c-2.39,0-4.33-1.94-4.33-4.34v-37.63c0-2.4,1.94-4.34,4.33-4.34s4.33,1.94,4.33,4.34v37.63c0,2.4-1.94,4.34-4.33,4.34Z"/>
  <g>
    <path class="cls-1" d="M156.99,32.5L124.85,0,1.25,125.02c-1.73,1.75-1.66,4.63.21,6.29,1.7,1.51,4.32,1.32,5.92-.3L124.85,12.19l31.83,32.2c.21.21.57.06.57-.24v-11c0-.24-.09-.47-.26-.64Z"/>
    <path class="cls-1" d="M248.72,125.29l-62.9-63.62c-.21-.21-.57-.06-.57.24v11c0,.24.09.47.26.64l57.28,57.94c.83.84,1.92,1.26,3.01,1.26s2.15-.41,2.97-1.22c1.7-1.68,1.61-4.54-.07-6.24Z"/>
  </g>
</svg>